<svg xmlns="http://www.w3.org/2000/svg" width="120" height="120" viewBox="0 0 120 120" fill="none"><g clip-path="url(#a)"><path d="M99.772 11.913c8.617 0 15.515 1.267 20.556 3.942 4.686 2.487 8.878 6.697 12.614 12.498.903 1.402.65 3.213-.508 4.343l-9.134 8.916c-1.677 1.637-4.409 1.182-5.539-.802-1.57-2.756-2.926-4.788-4.066-6.142-1.365-1.622-3.005-2.711-4.94-3.3l-.028-.008-.029-.01c-1.989-.692-4.933-1.076-8.926-1.076-5.465 0-9.528.336-12.257.972-2.602.629-4.115 1.64-4.888 2.835-.839 1.296-1.353 3.33-1.354 6.286 0 2.087.521 3.377 1.3 4.156.899.899 2.352 1.673 4.52 2.215 1.958.49 4.89 1.024 8.822 1.603l1.746.25.01.002c9.207 1.356 16.432 3.064 21.614 5.152 5.351 2.019 9.329 5.054 11.766 9.175 2.517 3.999 3.696 9.38 3.696 15.995 0 6.95-1.389 12.723-4.301 17.194-2.847 4.425-7.478 7.589-13.693 9.594l-.008.002-.007.003c-6.098 1.899-14.191 2.821-24.213 2.821-8.178 0-14.86-1.475-19.912-4.568l-.011-.007.794-1.273-.794 1.272c-4.488-2.805-8.484-7.482-12.042-13.879-.688 2.218-1.614 4.232-2.788 6.035-2.847 4.425-7.478 7.589-13.693 9.594l-.008.002-.006.003c-6.099 1.899-14.192 2.821-24.213 2.821-8.18 0-14.86-1.475-19.913-4.568l-.011-.007.795-1.273-.795 1.272c-4.63-2.894-8.737-7.78-12.38-14.493-.8-1.476-.408-3.28.855-4.322l9.898-8.156c1.803-1.486 4.492-.815 5.446 1.27 1.453 3.175 2.69 5.512 3.715 7.053 1.3 1.816 2.819 3.064 4.546 3.811 1.782.673 4.367 1.052 7.844 1.052 6.636 0 11.524-.388 14.737-1.122 3.224-.737 5.118-1.87 6.065-3.174 1.01-1.488 1.609-3.746 1.609-6.957 0-3.29-.53-5.377-1.33-6.541l-.019-.027-.017-.028c-.695-1.113-2.09-2.116-4.516-2.835-2.48-.735-6.77-1.495-12.947-2.267v-.001c-11.76-1.458-20.513-4.054-26.038-7.942l-.007-.006-.008-.005c-5.704-4.119-8.447-10.528-8.447-18.896 0-6.642 1.237-12.118 3.851-16.3 2.634-4.312 6.81-7.396 12.375-9.318 5.537-1.913 12.874-2.836 21.938-2.836 8.617 0 15.515 1.267 20.556 3.942 4.686 2.487 8.878 6.697 12.615 12.498.902 1.402.649 3.213-.51 4.343l-9.133 8.916c-1.677 1.637-4.409 1.182-5.54-.802-1.57-2.756-2.925-4.788-4.064-6.142-1.366-1.622-3.007-2.711-4.942-3.3l-.027-.008-.029-.01c-1.989-.692-4.933-1.076-8.926-1.076-5.465 0-9.528.336-12.257.972-2.601.629-4.114 1.64-4.888 2.835-.839 1.296-1.353 3.33-1.353 6.286 0 2.087.52 3.377 1.3 4.156.898.899 2.35 1.673 4.519 2.215 1.958.49 4.89 1.024 8.822 1.603l1.746.25.011.002c9.206 1.356 16.43 3.064 21.613 5.152 5.35 2.019 9.33 5.054 11.766 9.175 2.518 3.999 3.696 9.38 3.696 15.995q0 2.99-.346 5.687l9.248-7.62c1.803-1.486 4.492-.815 5.446 1.27 1.453 3.175 2.69 5.512 3.715 7.053 1.3 1.816 2.818 3.064 4.546 3.811 1.782.673 4.366 1.052 7.843 1.052 6.637 0 11.525-.388 14.738-1.122 3.223-.737 5.118-1.87 6.065-3.174 1.009-1.488 1.609-3.746 1.609-6.957-.001-3.29-.53-5.377-1.331-6.541l-.018-.027-.017-.028c-.696-1.113-2.091-2.116-4.516-2.835-2.481-.735-6.769-1.495-12.948-2.267v-.001c-11.758-1.458-20.512-4.054-26.037-7.942l-.007-.006-.008-.005c-5.704-4.119-8.448-10.528-8.448-18.896 0-6.642 1.238-12.118 3.852-16.3 2.634-4.312 6.81-7.396 12.375-9.318 5.537-1.913 12.873-2.836 21.938-2.836Z" fill="#fff" stroke="#fff" stroke-width="3"/></g><defs><clipPath id="a"><rect width="120" height="120" rx="36" fill="#fff"/></clipPath></defs></svg>